<svg xmlns="http://www.w3.org/2000/svg" xmlns:xlink="http://www.w3.org/1999/xlink" xmlns:svgjs="http://svgjs.com/svgjs" version="1.1" width="512" height="512" x="0" y="0" viewBox="0 0 512 512" style="enable-background:new 0 0 512 512" xml:space="preserve" class="">
  <g>
    <path d="M204.443 61.314a68.148 68.148 0 0 0-13.407-33.707h0a5.557 5.557 0 0 1-.12-6.542v0A31.838 31.838 0 0 1 221.88 7.88l.056.009a5.558 5.558 0 0 1 3.734 2.356h0a107.483 107.483 0 0 1 18.679 57.345M306.539 180.457l16.643-16.643a4.971 4.971 0 0 1 4.527-1.352h0a23.558 23.558 0 0 1 18.269 18.269v0a4.971 4.971 0 0 1-1.352 4.527l-15.57 15.57M335.413 213.61h21.945c1.675 0 3.238.844 4.157 2.245v0a23.556 23.556 0 0 1 0 25.836v0a4.97 4.97 0 0 1-4.157 2.245h-20.296M56.066 259.246l-29.814-29.814a5.556 5.556 0 0 1-1.314-5.768h0a32.749 32.749 0 0 1 20.063-20.063h0a5.555 5.555 0 0 1 5.767 1.314l6.636 6.636a72.396 72.396 0 0 0 10.498 8.685M54.018 306.86H22.323a5.554 5.554 0 0 1-5.007-3.149h0a32.746 32.746 0 0 1 0-28.373h0a5.555 5.555 0 0 1 5.007-3.149h9.385a72.383 72.383 0 0 0 22.97-3.741" style="stroke-width:15;stroke-linecap:round;stroke-linejoin:round;stroke-miterlimit:10;" fill="none" stroke="#1b8b41" stroke-width="15" stroke-linecap="round" stroke-linejoin="round" stroke-miterlimit="10" data-original="#000000" class="" opacity="1"/>
    <path d="M253.467 184.238c8.29-4.971 17.993-7.829 28.362-7.829 30.504 0 55.232 24.728 55.232 55.232a55.144 55.144 0 0 1-3.355 19.002" style="stroke-width:15;stroke-linecap:round;stroke-linejoin:round;stroke-miterlimit:10;" fill="none" stroke="#1b8b41" stroke-width="15" stroke-linecap="round" stroke-linejoin="round" stroke-miterlimit="10" data-original="#000000" class="" opacity="1"/>
    <path d="M290.612 137.288c3.097 12.208 4.786 25.383 4.786 39.122l-.002.719M150.461 108.928c14.573-28.593 38.168-47.173 64.796-47.173 23.489 0 44.618 14.458 59.276 37.493M150.069 175.587v-42.849l.103-49.999a7.68 7.68 0 0 0-4.798-7.134l-2.8-1.133a68.802 68.802 0 0 0-46.791.046c-4.257 1.544-6.694 6.029-5.806 10.469l1.993 9.965a388.985 388.985 0 0 1 4.471 27.447l-24.759-16.293a5.587 5.587 0 0 0-5.3-.441 26.331 26.331 0 0 0-15.835 24.061 5.586 5.586 0 0 0 2.501 4.693l23.322 15.348a51.427 51.427 0 0 1 22.718 36.259M99.057 413.935a417.25 417.25 0 0 1-6.054 53.685l-4.397 24.57a5 5 0 0 0 2.723 5.371l1.853.908a59.176 59.176 0 0 0 54.275-1.147h0a5.001 5.001 0 0 0 2.613-4.394v-36.057" style="stroke-width:15;stroke-linecap:round;stroke-linejoin:round;stroke-miterlimit:10;" fill="none" stroke="#1b8b41" stroke-width="15" stroke-linecap="round" stroke-linejoin="round" stroke-miterlimit="10" data-original="#000000" class="" opacity="1"/>
    <path d="M229.046 120.84a152.558 152.558 0 0 1 84.32-25.42c1.29 0 2.51.37 3.55 1.02 1.04.66 1.9 1.6 2.46 2.76 2.06 4.28 3.09 8.92 3.09 13.56s-1.03 9.27-3.09 13.55a6.786 6.786 0 0 1-2.46 2.76 6.684 6.684 0 0 1-3.55 1.02c-6.01 0-11.93 1.11-17.46 3.22s-10.68 5.21-15.17 9.22a101.615 101.615 0 0 0-20.54 25.34c-5.4 9.44-9.29 19.75-11.45 30.55l-5.26 26.3M171.336 181.46l22.63-28.45c2.65-3.33 5.42-6.53 8.31-9.6M74.096 375.21a193.419 193.419 0 0 0 51.59 63.27 193.297 193.297 0 0 0 64.7 34.03M224.406 481.08l91.58 22.18a44 44 0 0 0 10.35 1.24c5.64 0 11.09-1.08 16.13-3.06 5.04-1.99 9.67-4.9 13.64-8.55" style="stroke-width:15;stroke-linecap:round;stroke-linejoin:round;stroke-miterlimit:10;" fill="none" stroke="#1b8b41" stroke-width="15" stroke-linecap="round" stroke-linejoin="round" stroke-miterlimit="10" data-original="#000000" class="" opacity="1"/>
    <path d="M61.206 342.61a183.66 183.66 0 0 1-7.19-50.87c0-21.76 3.87-43.55 11.65-64.35 5.73-15.33 15.93-28.07 28.78-36.99a78.413 78.413 0 0 1 44.73-13.99 78.51 78.51 0 0 1 44.05 13.52l37.17 25.2a78.48 78.48 0 0 0 44.05 13.53c20.46 0 40.13 5.49 57.21 15.42a113.753 113.753 0 0 1 41.7 42.1c5.72 10.05 10.49 20.5 14.32 31.21" style="stroke-width:15;stroke-linecap:round;stroke-linejoin:round;stroke-miterlimit:10;" fill="none" stroke="#1b8b41" stroke-width="15" stroke-linecap="round" stroke-linejoin="round" stroke-miterlimit="10" data-original="#000000" class="" opacity="1"/>
    <path d="M287.048 232.615v63.603a130.11 130.11 0 0 1-13.357 57.422h0a130.116 130.116 0 0 0-13.357 57.422v20.795M287.327 284.729l19.046 42.964a74.671 74.671 0 0 1 5.725 20.196v0a74.661 74.661 0 0 0 6.938 22.796" style="stroke-width:15;stroke-linecap:round;stroke-linejoin:round;stroke-miterlimit:10;" fill="none" stroke="#1b8b41" stroke-width="15" stroke-linecap="round" stroke-linejoin="round" stroke-miterlimit="10" data-original="#000000" class="" opacity="1"/>
    <path d="m280.517 335.45-13.334 4.559a70.273 70.273 0 0 0-45.557 49.914h0M178.154 189.844v3.065a115.63 115.63 0 0 1-26.767 73.984h0a121.318 121.318 0 0 0-28.085 77.626v1.017" style="stroke-width:15;stroke-linecap:round;stroke-linejoin:round;stroke-miterlimit:10;" fill="none" stroke="#1b8b41" stroke-width="15" stroke-linecap="round" stroke-linejoin="round" stroke-miterlimit="10" data-original="#000000" class="" opacity="1"/>
    <path d="m168.165 241.572 4.062 6.643a67.764 67.764 0 0 1 6.284 57.346v0M175.681 211.87l-9.706 7.369a98.96 98.96 0 0 1-59.838 20.141h0M497.916 427.79c-8.2 43.67-46.53 76.71-92.58 76.71-52.03 0-94.22-42.18-94.22-94.21 0-52.04 42.19-94.22 94.22-94.22 46.05 0 84.39 33.04 92.58 76.72" style="stroke-width:15;stroke-linecap:round;stroke-linejoin:round;stroke-miterlimit:10;" fill="none" stroke="#1b8b41" stroke-width="15" stroke-linecap="round" stroke-linejoin="round" stroke-miterlimit="10" data-original="#000000" class="" opacity="1"/>
    <path d="M354.62 393.058h33.487v-33.487h34.456v33.487h33.487v34.456h-33.487v33.487h-34.456v-33.487H354.62z" style="stroke-width:15;stroke-linecap:round;stroke-linejoin:round;stroke-miterlimit:10;" fill="none" stroke="#1b8b41" stroke-width="15" stroke-linecap="round" stroke-linejoin="round" stroke-miterlimit="10" data-original="#000000" class="" opacity="1"/>
  </g>
</svg>