<?xml version="1.0" encoding="UTF-8"?>
<svg xmlns="http://www.w3.org/2000/svg" xmlns:xlink="http://www.w3.org/1999/xlink" xmlns:svgjs="http://svgjs.com/svgjs" version="1.1" width="512" height="512" x="0" y="0" viewBox="0 0 512 512" style="enable-background:new 0 0 512 512" xml:space="preserve" class="">
  <g>
    <path d="M354.61 490.45c-10.91 8.79-24.79 14.05-39.89 14.05-32.76 0-59.72-24.74-63.24-56.55-3.53 31.81-30.49 56.55-63.24 56.55-35.15 0-63.65-28.49-63.65-63.64 0-1.19.04-2.35.11-3.52v-.01a33.737 33.737 0 0 1-10.49 1.67c-16.14 0-29.63-11.32-32.97-26.45-26.03-3.89-45.99-26.34-45.99-53.44 0-11.09 3.35-21.38 9.07-29.96v-.01c-14.12-8.74-24.85-22.45-29.72-38.69M458.63 329.14c19.58-12.11 32.62-33.77 32.62-58.48 0-23.02-11.32-43.38-28.69-55.85 0-.01.01-.01.01-.02a53.884 53.884 0 0 0 5.13-22.99c0-23.4-14.87-43.32-35.67-50.84 1.11-3.34 1.72-6.91 1.72-10.63 0-18.65-15.12-33.77-33.77-33.77-2.28 0-4.51.22-6.66.66 0-.23.01-.44.01-.66 0-29.85-24.19-54.05-54.04-54.05-1.38 0-2.75.06-4.11.16a49.826 49.826 0 0 0-13.14-21.27M289.9 7.56c-.8-.04-1.61-.06-2.42-.06-14.15 0-26.92 5.9-36 15.36-9.09-9.46-21.86-15.36-36.01-15.36-22.43 0-41.41 14.8-47.7 35.17-1.36-.1-2.73-.16-4.11-.16-29.85 0-54.04 24.2-54.04 54.05 0 .22.01.42.02.65v.01c-2.16-.44-4.38-.66-6.66-.66-18.66 0-33.78 15.12-33.78 33.77 0 3.72.61 7.29 1.72 10.63-20.8 7.52-35.67 27.44-35.67 50.84 0 8.22 1.85 16.02 5.13 22.99 0 .01.01.01.01.02-13.43 9.64-23.24 23.99-26.99 40.64" style="stroke-width:15;stroke-linecap:round;stroke-linejoin:round;stroke-miterlimit:10;" fill="none" stroke="#e90401" stroke-width="15" stroke-linecap="round" stroke-linejoin="round" stroke-miterlimit="10" data-original="#000000" opacity="1" class=""/>
    <path d="M40.383 214.793a68.354 68.354 0 0 1 31.526-12.343M109.637 97.212c11.161 2.232 20.336 9.966 24.578 20.253M88.801 383.62a33.645 33.645 0 0 0-8.251 22.12c0 2.332.236 4.608.686 6.807M124.699 437.339a33.857 33.857 0 0 0 17.512-13.226M71.909 338.872a68.31 68.31 0 0 1-27.594-9.719M251.48 447.95v-25.1M251.48 387.85V22.86M167.769 42.671l-.079.321a41.262 41.262 0 0 0 4.876 31.348h0M142.349 216.015a49.937 49.937 0 0 1 1.893 21.96c-3.731 27.429-28.991 46.641-56.42 42.911M250.85 258.515a33.823 33.823 0 0 1-11.075 10.029c-16.333 9.238-37.062 3.487-46.3-12.846M252.102 258.515a33.823 33.823 0 0 0 11.075 10.029c16.332 9.238 37.062 3.487 46.3-12.846" style="stroke-width:15;stroke-linecap:round;stroke-linejoin:round;stroke-miterlimit:10;" fill="none" stroke="#e90401" stroke-width="15" stroke-linecap="round" stroke-linejoin="round" stroke-miterlimit="10" data-original="#000000" opacity="1" class=""/>
    <path d="m133.216 264.818 8.466 5.925a43.607 43.607 0 0 1 17.726 27.012M200.315 208.622a39.977 39.977 0 0 0-3.058-17.38c-8.535-20.453-32.034-30.116-52.487-21.581M201.159 75.713a25.979 25.979 0 0 0-10.991-3.274c-14.369-.984-26.814 9.867-27.798 24.235M83.325 180.904a25.97 25.97 0 0 0-6.205 9.644c-4.947 13.526 2.009 28.501 15.535 33.448" style="stroke-width:15;stroke-linecap:round;stroke-linejoin:round;stroke-miterlimit:10;" fill="none" stroke="#e90401" stroke-width="15" stroke-linecap="round" stroke-linejoin="round" stroke-miterlimit="10" data-original="#000000" opacity="1" class=""/>
    <path d="m183.2 172.744 5.33-6.327a34.913 34.913 0 0 0 5.52-35.938h0M123.098 350.362a52.124 52.124 0 0 0 18.257 14.016c26.232 12.145 57.342.725 69.487-25.507" style="stroke-width:15;stroke-linecap:round;stroke-linejoin:round;stroke-miterlimit:10;" fill="none" stroke="#e90401" stroke-width="15" stroke-linecap="round" stroke-linejoin="round" stroke-miterlimit="10" data-original="#000000" opacity="1" class=""/>
    <path d="m171.174 369.776.451 10.781a45.539 45.539 0 0 0 26.365 39.42h0M462.569 214.793a68.354 68.354 0 0 0-31.526-12.343M393.315 97.212c-11.161 2.232-20.336 9.966-24.578 20.253M335.183 42.671l.079.321a41.262 41.262 0 0 1-4.876 31.348v0M360.603 216.015a49.937 49.937 0 0 0-1.893 21.96c3.731 27.429 28.991 46.641 56.42 42.911" style="stroke-width:15;stroke-linecap:round;stroke-linejoin:round;stroke-miterlimit:10;" fill="none" stroke="#e90401" stroke-width="15" stroke-linecap="round" stroke-linejoin="round" stroke-miterlimit="10" data-original="#000000" opacity="1" class=""/>
    <path d="m369.736 264.818-8.466 5.925a43.606 43.606 0 0 0-17.727 27.013M302.637 208.622a39.977 39.977 0 0 1 3.058-17.38c8.535-20.453 32.034-30.116 52.487-21.581M301.793 75.713c3.272-1.841 6.996-3 10.991-3.274 14.369-.984 26.814 9.867 27.798 24.235M419.627 180.904a25.97 25.97 0 0 1 6.205 9.644c4.947 13.526-2.009 28.501-15.535 33.448" style="stroke-width:15;stroke-linecap:round;stroke-linejoin:round;stroke-miterlimit:10;" fill="none" stroke="#e90401" stroke-width="15" stroke-linecap="round" stroke-linejoin="round" stroke-miterlimit="10" data-original="#000000" opacity="1" class=""/>
    <path d="m319.753 172.744-5.33-6.327a34.913 34.913 0 0 1-5.52-35.938v0M319.365 365.15c-11.628-4.872-21.541-13.936-27.255-26.278" style="stroke-width:15;stroke-linecap:round;stroke-linejoin:round;stroke-miterlimit:10;" fill="none" stroke="#e90401" stroke-width="15" stroke-linecap="round" stroke-linejoin="round" stroke-miterlimit="10" data-original="#000000" opacity="1" class=""/>
    <path d="M483.1 461.34c9.8-14.85 15.5-32.65 15.5-51.78 0-52.03-42.18-94.21-94.21-94.21s-94.22 42.18-94.22 94.21c0 52.04 42.19 94.22 94.22 94.22 20.26 0 39.02-6.39 54.38-17.27" style="stroke-width:15;stroke-linecap:round;stroke-linejoin:round;stroke-miterlimit:10;" fill="none" stroke="#e90401" stroke-width="15" stroke-linecap="round" stroke-linejoin="round" stroke-miterlimit="10" data-original="#000000" opacity="1" class=""/>
    <path d="M353.674 392.336h33.486V358.85h34.457v33.486h33.486v34.456h-33.486v33.487H387.16v-33.487h-33.486z" style="stroke-width:15;stroke-linecap:round;stroke-linejoin:round;stroke-miterlimit:10;" fill="none" stroke="#e90401" stroke-width="15" stroke-linecap="round" stroke-linejoin="round" stroke-miterlimit="10" data-original="#000000" opacity="1" class=""/>
  </g>
</svg>
