<?xml version="1.0" encoding="utf-8"?>
<!-- Generator: Adobe Illustrator 26.0.0, SVG Export Plug-In . SVG Version: 6.00 Build 0)  -->
<svg version="1.1" id="Layer_1" xmlns="http://www.w3.org/2000/svg" xmlns:xlink="http://www.w3.org/1999/xlink" x="0px" y="0px"
	 viewBox="0 0 7200 2160" style="enable-background:new 0 0 7200 2160;" xml:space="preserve">
<style type="text/css">
	.st0{fill:url(#SVGID_1_);}
	.st1{fill:url(#SVGID_00000084491114945440778530000016548568695272732321_);}
	.st2{fill:url(#XMLID_00000069383093337950475650000002025999816903263659_);}
	.st3{fill:url(#XMLID_00000072994263599987652780000003527779898008407455_);}
	.st4{fill:url(#XMLID_00000120533132525915669100000002297950952013092278_);}
	.st5{fill:url(#XMLID_00000140009891594986813640000000105339195439552675_);}
	.st6{fill-rule:evenodd;clip-rule:evenodd;fill:url(#SVGID_00000023988294133718948410000002180470284699991454_);}
	.st7{fill:url(#SVGID_00000176754746865578666360000009561151428331227305_);}
	.st8{fill:url(#SVGID_00000056428577499348359480000007947638950897637786_);}
	.st9{fill:url(#SVGID_00000137821624852847572610000001474356222549147011_);}
	.st10{fill:url(#SVGID_00000112592046001036138830000010924391875181755831_);}
	.st11{fill:url(#SVGID_00000162331163904497601470000008431041109078331577_);}
	.st12{fill:url(#SVGID_00000181784828696791910820000000140917152161504388_);}
	.st13{fill:url(#SVGID_00000054966979995555316360000011461951459240948385_);}
	.st14{fill:url(#SVGID_00000148650587711718228860000002587331407218086534_);}
	.st15{fill:url(#SVGID_00000002354829274937467330000007609047565076123295_);}
</style>
<g>
	<g>
		<linearGradient id="SVGID_1_" gradientUnits="userSpaceOnUse" x1="224.2094" y1="1302.3556" x2="1139.4139" y2="1302.3556">
			<stop  offset="0" style="stop-color:#046937"/>
			<stop  offset="1" style="stop-color:#2AA148"/>
		</linearGradient>
		<path class="st0" d="M1079.8,1079.7c0-16.5,13.4-29.8,29.8-29.8c16.5,0,29.8,13.4,29.8,29.8c0,131.2-53.2,250-139.2,336
			c-86,86-204.8,139.2-336,139.2c-15.7,0-31.7-0.9-48.1-2.5c-16.1-1.6-32-4.1-47.6-7.3c-15.5-3.2-30.6-7-45.2-11.6
			c-14.8-4.6-29.5-10-43.9-16.1c-14.9-6.3-28.7-12.9-41.5-19.8v-0.1c-14-7.6-27.1-15.5-39.3-23.8c-12.2-8.2-24.3-17.4-36.5-27.4
			c-12.3-10.2-23.6-20.4-33.9-30.6c-10.2-10.2-20.5-21.5-30.6-33.9c-10-12.1-19.1-24.3-27.3-36.5c-8.6-12.8-16.6-25.9-23.9-39.3
			c-6.9-12.8-13.6-26.6-19.9-41.5c-6.4-15.1,0.7-32.5,15.8-38.9c15.1-6.4,32.5,0.7,38.9,15.8c4.9,11.7,10.8,23.7,17.5,36.1
			c6.5,11.9,13.4,23.4,20.9,34.4c7.8,11.5,15.7,22.2,23.8,32c8,9.7,17,19.5,26.9,29.5c9.9,9.9,19.8,18.9,29.5,26.9
			c9.8,8.1,20.5,16.1,32,23.9c11.5,7.8,23,14.8,34.4,21l0-0.1c12.4,6.7,24.4,12.6,36.1,17.5c12.3,5.2,25.1,9.9,38.4,14
			c13.1,4.1,26.3,7.5,39.6,10.2c13.6,2.8,27.4,4.9,41.5,6.3c13.2,1.3,27.1,2,41.8,2c2.4-42.4,13.5-104.5,55.5-140.5
			c68.2-58.3,124.7-23.6,203.6-132.9c0,0,15.4-14.4,23.6-4.7c6.9,8.1,12,56-46.8,113.6c-12,11.7-46.2,37.8-42.5,45
			c2.9,5.6,160-33.7,211.3-199.7C1075.9,1145.1,1079.8,1112.8,1079.8,1079.7"/>
		
			<linearGradient id="SVGID_00000160166413566728707490000014564723791021942455_" gradientUnits="userSpaceOnUse" x1="189.1053" y1="857.0141" x2="1104.3096" y2="857.0141">
			<stop  offset="0" style="stop-color:#222A5F"/>
			<stop  offset="1" style="stop-color:#186CAB"/>
		</linearGradient>
		<path style="fill:url(#SVGID_00000160166413566728707490000014564723791021942455_);" d="M248.7,1079.7
			c0,16.5-13.3,29.8-29.8,29.8c-16.5,0-29.8-13.4-29.8-29.8c0-131.2,53.2-250,139.2-336c86-86,204.8-139.2,336-139.2
			c15.7,0,31.7,0.9,48.1,2.5c16.1,1.6,32,4.1,47.6,7.3c15.5,3.2,30.6,7.1,45.2,11.6c14.8,4.6,29.5,10,43.9,16.1
			c14.9,6.3,28.7,12.9,41.5,19.8v0.1c14,7.6,27.1,15.5,39.3,23.8c12.2,8.2,24.3,17.4,36.5,27.4c12.3,10.2,23.6,20.4,33.9,30.6
			c10.2,10.2,20.5,21.5,30.6,33.9c10,12.1,19.1,24.3,27.3,36.5c8.6,12.8,16.6,25.9,23.9,39.3c6.9,12.8,13.6,26.6,19.9,41.5
			c6.4,15.1-0.7,32.5-15.8,38.9c-15.1,6.4-32.5-0.7-38.9-15.8c-4.9-11.7-10.8-23.7-17.5-36.1c-6.5-11.9-13.5-23.4-20.9-34.4
			c-7.8-11.5-15.7-22.2-23.8-32c-8-9.7-17-19.5-26.9-29.5c-9.9-9.9-19.8-18.9-29.5-26.9c-9.8-8.1-20.5-16.1-32-23.9
			c-11.5-7.8-23-14.8-34.4-21l0,0.1c-12.4-6.7-24.4-12.6-36.1-17.5c-12.3-5.2-25.1-9.9-38.4-14c-13.1-4.1-26.3-7.5-39.6-10.2
			c-13.6-2.8-27.4-4.9-41.5-6.3c-13.2-1.3-27.1-2-41.8-2c-2.4,42.4-13.5,104.5-55.5,140.5C541,863,484.5,828.3,405.6,937.5
			c0,0-15.4,14.4-23.6,4.7c-6.9-8.1-12-56,46.8-113.6c12-11.7,46.2-37.8,42.5-45c-2.9-5.6-160,33.7-211.3,199.8
			C252.6,1014.3,248.7,1046.6,248.7,1079.7"/>
		<g id="XMLID_00000092451348384954107810000002601232006996313787_">
			
				<linearGradient id="XMLID_00000092429853050377762270000003765690670165139333_" gradientUnits="userSpaceOnUse" x1="18684.0449" y1="-1906.381" x2="18684.0449" y2="-2101.1147" gradientTransform="matrix(-1 0 0 -1 19348.3047 -835.8737)">
				<stop  offset="0" style="stop-color:#F04F3F"/>
				<stop  offset="1" style="stop-color:#C42127"/>
			</linearGradient>
			
				<path id="XMLID_00000059282346370101848990000012746800851176856224_" style="fill:url(#XMLID_00000092429853050377762270000003765690670165139333_);" d="
				M608,1136.3v128.9l113.3,0l0-128.9h128.9v-65.8c0,0-147.9,53.6-371.8,65.8L608,1136.3z"/>
			
				<linearGradient id="XMLID_00000168812467946817458500000018063776803159416461_" gradientUnits="userSpaceOnUse" x1="18585.873" y1="-2039.0127" x2="18692.9512" y2="-1931.934" gradientTransform="matrix(-1 0 0 -1 19348.3047 -835.8737)">
				<stop  offset="0.3878" style="stop-color:#E01F26;stop-opacity:0"/>
				<stop  offset="1" style="stop-color:#F68D5A"/>
			</linearGradient>
			
				<path id="XMLID_00000072279406870480497140000009598746581980093879_" style="fill:url(#XMLID_00000168812467946817458500000018063776803159416461_);" d="
				M839.7,1125.9H710.8l0,128.9h-92.3V1133c53.4-7.5,98.4-16.5,131.9-24.2c42.6-9.8,73.1-18.8,89.3-24V1125.9z"/>
			
				<linearGradient id="XMLID_00000072261008464986389940000013554624538900274343_" gradientUnits="userSpaceOnUse" x1="18726.291" y1="-1730.0009" x2="18726.291" y2="-1963.5656" gradientTransform="matrix(-1 0 0 -1 19348.3047 -835.8737)">
				<stop  offset="0" style="stop-color:#C42127"/>
				<stop  offset="1" style="stop-color:#E01F26"/>
			</linearGradient>
			
				<path id="XMLID_00000056400794150545932140000007477871599651839377_" style="fill:url(#XMLID_00000072261008464986389940000013554624538900274343_);" d="
				M765.6,1023.1h-44.3l0-128.9l-113.3,0v128.9l-129.5,0l0,104.6C533.6,1118.1,681.3,1087.5,765.6,1023.1z"/>
			
				<linearGradient id="XMLID_00000105420189215571872060000006319417979399412127_" gradientUnits="userSpaceOnUse" x1="18737.8535" y1="-1740.4548" x2="18737.8535" y2="-1951.2585" gradientTransform="matrix(-1 0 0 -1 19348.3047 -835.8737)">
				<stop  offset="0.3878" style="stop-color:#E01F26;stop-opacity:0"/>
				<stop  offset="1" style="stop-color:#F68D5A"/>
			</linearGradient>
			
				<path id="XMLID_00000149381713656650297020000014679321690767450804_" style="fill:url(#XMLID_00000105420189215571872060000006319417979399412127_);" d="
				M710.8,904.6l0,128.9H732c-77.1,46.5-186.1,71.3-243,81.9l0-81.9h129.5V904.6L710.8,904.6z"/>
		</g>
		
			<linearGradient id="SVGID_00000067928021156061439120000003458288611782701465_" gradientUnits="userSpaceOnUse" x1="6203.5312" y1="7731.3438" x2="6433.2246" y2="8022.3115" gradientTransform="matrix(0.5271 0.8498 -0.8498 0.5271 4252.6147 -8614.2734)">
			<stop  offset="0" style="stop-color:#222A5F"/>
			<stop  offset="1" style="stop-color:#186CAB"/>
		</linearGradient>
		<path style="fill-rule:evenodd;clip-rule:evenodd;fill:url(#SVGID_00000067928021156061439120000003458288611782701465_);" d="
			M817.7,1027.5l7.5,43.9l17.4-15.7l0.9-29.1l47.2-43l27.2,89.9l22.7-25.3l-2.9-33l17.4-15.7l-6.5-6.9l-11.8,10.6l-0.7-6.9
			l17.5-16.1l-8.1-9l-10.7,9.7l-2.9-31.7c22.5-16.4,34.7-36.1,37-58.9c-22.8-0.1-43.6,10.3-62.2,31.2l-31.3-5.8l10.7-9.7l-8.2-9.2
			l-17.5,16.1l-7.1-1.3l12-10.7l-6.6-7.1l-17.2,15.6l-32.6-6.1l-27.3,20.2l86.7,35.7l-47.2,43l-28.9-1.9l-17.6,15.9L817.7,1027.5z"
			/>
	</g>
	<g>
		<g>
			
				<linearGradient id="SVGID_00000049905484054289732590000009793250129856122809_" gradientUnits="userSpaceOnUse" x1="1377.7189" y1="1409.1505" x2="1723.7828" y2="809.7501">
				<stop  offset="0" style="stop-color:#222A5F"/>
				<stop  offset="1" style="stop-color:#186CAB"/>
			</linearGradient>
			<path style="fill:url(#SVGID_00000049905484054289732590000009793250129856122809_);" d="M1393.4,852.8l278.7,345.4V944.4
				c0-49.9-3.7-82.1-38.1-82.1v-9.5h164.3v9.5c-38.1,0-38.1,38.9-38.1,96.8v300.7c0,57.9,0,96.8,38.1,96.8v9.5h-99.7l-269.2-330
				v223.7c0,57.9,0,96.8,38.1,96.8v9.5h-164.3v-9.5c38.1,0,38.1-38.9,38.1-96.8V959.1c0-57.9,0-96.8-38.1-96.8v-9.5H1393.4z"/>
			
				<linearGradient id="SVGID_00000106144907829532894420000005521358036826282373_" gradientUnits="userSpaceOnUse" x1="2094.6973" y1="1404.5062" x2="2435.4392" y2="814.324">
				<stop  offset="0" style="stop-color:#222A5F"/>
				<stop  offset="1" style="stop-color:#186CAB"/>
			</linearGradient>
			<path style="fill:url(#SVGID_00000106144907829532894420000005521358036826282373_);" d="M2125.3,1377.9
				c-132.7,0-264.8-89.5-264.8-268.4s132-268.4,264.8-268.4c48.4,0,97.5,12.5,140.1,36.7c41.8-24.2,90.9-36.7,140.1-36.7
				c132,0,264,89.5,264,268.4s-132,268.4-264,268.4c-49.1,0-98.3-12.5-140.1-36.7C2222.9,1365.4,2173.7,1377.9,2125.3,1377.9z
				 M2299.1,1150.5c2.9-12.5,4.4-26.4,4.4-41.1c0-120.3-89.5-179.7-178.2-179.7c-89.5,0-178.2,59.4-178.2,179.7
				c0,120.3,88.7,179.7,178.2,179.7c22.7,0,46.2-3.7,67.5-11.7c-32.3-42.5-52.1-98.3-52.1-167.9c0-42.5,7.3-79.2,20.5-111.5
				l69.7,70.4c-2.9,12.5-4.4,26.4-4.4,41.1c0,120.3,89.5,179.7,179,179.7c88.7,0,178.2-59.4,178.2-179.7
				c0-120.3-89.5-179.7-178.2-179.7c-23.5,0-46.2,3.7-68.2,11.7c32.3,42.5,52.1,98.3,52.1,167.9c0,42.5-7.3,79.2-20.5,111.5
				L2299.1,1150.5z"/>
			
				<linearGradient id="SVGID_00000098212508551195241630000001105180184772561807_" gradientUnits="userSpaceOnUse" x1="2788.387" y1="1398.8298" x2="3075.0056" y2="902.3918">
				<stop  offset="0" style="stop-color:#222A5F"/>
				<stop  offset="1" style="stop-color:#186CAB"/>
			</linearGradient>
			<path style="fill:url(#SVGID_00000098212508551195241630000001105180184772561807_);" d="M2731.8,1366.1v-9.5
				c38.1,0,38.1-38.9,38.1-96.8V959.1c0-57.9,0-96.8-38.1-96.8v-9.5H2932c115.9,0,173.8,77,173.8,154.8
				c0,57.9-32.3,115.1-97.5,140.8l75.5,110c0.7,1.5,1.5,2.2,1.5,2.9l45.5,66c14.7,17.6,29.3,29.3,48.4,29.3v9.5h-164.3v-9.5
				c11.7,0,16.1-4.4,16.1-11c0-6.6-3.7-15.4-10.3-25.7l-107.1-158.4h-55.7v98.3c0,57.9,0,96.8,38.1,96.8v9.5H2731.8z M2857.9,1077.9
				l74.1,0.7c55.7,0,83.6-35.9,83.6-71.1c0-35.9-27.9-71.9-83.6-71.9h-74.1V1077.9z"/>
		</g>
		<g>
			
				<linearGradient id="SVGID_00000168803221057063315560000009200114838504059311_" gradientUnits="userSpaceOnUse" x1="3399.8237" y1="1465.6787" x2="3779.9915" y2="807.209">
				<stop  offset="0" style="stop-color:#046937"/>
				<stop  offset="1" style="stop-color:#2AA148"/>
			</linearGradient>
			<path style="fill:url(#SVGID_00000168803221057063315560000009200114838504059311_);" d="M3227.4,1366.1v-9.5
				c37.4,0,43.3-30.8,53.5-99l45.5-300c1.5-13.2,2.9-25.7,2.9-36.7c0-35.9-11-58.7-39.6-58.7v-9.5H3391l183.3,368.2l182.6-368.2
				h101.9v9.5c-28.6,0-39.6,22.7-39.6,58.7c0,11.7,1.5,24.9,3.7,39.6l44.7,301.4c10.3,65.3,16.1,94.6,53.5,94.6v9.5h-164.3v-9.5
				c23.5,0,30.1-14.7,30.1-38.1c0-16.1-2.9-35.9-5.9-58.7l-31.5-204.6l-100.5,204.6c-14.7,30.8-22,55.7-22,73.3
				c0,14.7,5.9,23.5,17.6,23.5v9.5h-139.4v-9.5c11,0,15.4-8.8,15.4-22.7c0-19.1-8.8-47.7-21.3-73.3L3399,1055.2l-31.5,204.6
				c-3.7,22.7-6.6,42.5-6.6,58.7c0,23.5,7.3,38.1,30.1,38.1v9.5H3227.4z"/>
			
				<linearGradient id="SVGID_00000011710164022312412550000003301203957149741230_" gradientUnits="userSpaceOnUse" x1="4127.853" y1="1470.6641" x2="4525.5942" y2="781.7562">
				<stop  offset="0" style="stop-color:#046937"/>
				<stop  offset="1" style="stop-color:#2AA148"/>
			</linearGradient>
			<path style="fill:url(#SVGID_00000011710164022312412550000003301203957149741230_);" d="M4505.7,1006v277.2h60.9
				c115.9,0,173.8-87.3,173.8-174.5c0-87.3-57.9-173.8-173.8-173.8H4073v133.5h85.1c57.9,0,96.8,0,96.8-38.1h9.5v158.4h-9.5
				c0-38.1-38.9-38.1-96.8-38.1H4073V1284h137.9c57.9,0,107.8,0,107.8-38.1h9.5l-11,120.3h-370.4v-9.5c38.1,0,38.1-38.9,38.1-96.8
				V959.1c0-57.9,0-96.8-38.1-96.8v-9.5h623.4c174.5,1.5,261.8,129.1,261.8,256.7s-87.3,254.5-261.8,256.7h-190.7v-9.5
				c38.1,0,38.1-38.9,38.1-96.8v-147.4c0-57.9,0-96.8-38.1-96.8v-9.5H4505.7z"/>
			
				<linearGradient id="SVGID_00000098200340764967306740000003418420542051212691_" gradientUnits="userSpaceOnUse" x1="4843.2856" y1="1337.5389" x2="5106.6597" y2="881.3616">
				<stop  offset="0" style="stop-color:#046937"/>
				<stop  offset="1" style="stop-color:#2AA148"/>
			</linearGradient>
			<path style="fill:url(#SVGID_00000098200340764967306740000003418420542051212691_);" d="M4892.8,1366.1v-9.5
				c38.1,0,38.1-38.9,38.1-96.8V959.1c0-57.9,0-96.8-38.1-96.8v-9.5h164.3v9.5c-38.1,0-38.1,38.9-38.1,96.8v300.7
				c0,57.9,0,96.8,38.1,96.8v9.5H4892.8z"/>
			
				<linearGradient id="SVGID_00000059269060601992518330000010752447821074879876_" gradientUnits="userSpaceOnUse" x1="5462.0713" y1="1474.8417" x2="5848.5703" y2="805.405">
				<stop  offset="0" style="stop-color:#046937"/>
				<stop  offset="1" style="stop-color:#2AA148"/>
			</linearGradient>
			<path style="fill:url(#SVGID_00000059269060601992518330000010752447821074879876_);" d="M5525,893.1v0.7l-28.6,157h-9.5
				c0-9.5-0.7-24.2-2.2-39.6c-13.2-58.7-65.3-80.7-107.8-82.1h-2.2c-116.6-0.7-175.3,89.5-175.3,180.4
				c0,90.2,57.9,180.4,173.1,180.4c49.9,0,112.9-24.9,126.9-77.7c0-1.5,0-2.9,0-5.1h10.3l15.4,118.1c0,0.7,0,0.7,0,0.7h-0.7
				c-38.9,32.3-79.9,49.1-140.1,51.3c-8.1,0-15.4,0-23.5,0c-169.4-5.9-253.8-136.4-253.8-267.7c0-134.2,88-267.7,264.8-267.7
				c54.3,0,108.5,18.3,152.6,51.3H5525z M5849.2,852.8h-0.7h13.9h-0.7h68.9v9.5c-14.7,0-24.9,13.9-24.9,37.4
				c0,14.7,4.4,34.5,14.7,56.5l140.8,302.9v-1.5c7.3,15.4,12.5,28.6,18.3,40.3l7.3,16.9c13.2,26.4,25.7,41.8,49.9,41.8v9.5h-164.3
				v-9.5c16.9,0,22.7-8.1,22.7-22c0-17.6-11-44.7-24.2-74.8l-46.2-99h-138.6l-45.5,99c-13.9,30.1-24.9,57.2-24.9,74.8
				c0,13.9,5.9,22,22.7,22v9.5h-164.3v-9.5c24.2,0,35.9-14.7,49.1-41.1l8.8-18.3c5.1-11.7,11-24.9,17.6-39.6v1.5l45.5-98.3h-346.6
				c-13.4,0-24.6-10.3-25.8-23.7l-8.2-96.6h9.5c0,38.1,49.1,38.1,107.1,38.1H5734l56.5-122.5c10.3-22,14.7-41.8,14.7-56.5
				c0-23.5-10.3-37.4-24.9-37.4v-9.5H5849.2z M5824.2,1078.6h63.1l-31.5-68.2L5824.2,1078.6z"/>
			
				<linearGradient id="SVGID_00000116234981247542560100000003671272805897959337_" gradientUnits="userSpaceOnUse" x1="6210.7852" y1="1398.8298" x2="6497.4043" y2="902.3914">
				<stop  offset="0" style="stop-color:#046937"/>
				<stop  offset="1" style="stop-color:#2AA148"/>
			</linearGradient>
			<path style="fill:url(#SVGID_00000116234981247542560100000003671272805897959337_);" d="M6154.2,1366.1v-9.5
				c38.1,0,38.1-38.9,38.1-96.8V959.1c0-57.9,0-96.8-38.1-96.8v-9.5h200.2c115.9,0,173.8,77,173.8,154.8
				c0,57.9-32.3,115.1-97.5,140.8l75.5,110c0.7,1.5,1.5,2.2,1.5,2.9l45.5,66c14.7,17.6,29.3,29.3,48.4,29.3v9.5h-164.3v-9.5
				c11.7,0,16.1-4.4,16.1-11c0-6.6-3.7-15.4-10.3-25.7l-107.1-158.4h-55.7v98.3c0,57.9,0,96.8,38.1,96.8v9.5H6154.2z M6280.3,1077.9
				l74.1,0.7c55.7,0,83.6-35.9,83.6-71.1c0-35.9-27.9-71.9-83.6-71.9h-74.1V1077.9z"/>
			
				<linearGradient id="SVGID_00000080206498617404449120000015433346297693449603_" gradientUnits="userSpaceOnUse" x1="6651.2549" y1="1382.158" x2="6966.1504" y2="836.7427">
				<stop  offset="0" style="stop-color:#046937"/>
				<stop  offset="1" style="stop-color:#2AA148"/>
			</linearGradient>
			<path style="fill:url(#SVGID_00000080206498617404449120000015433346297693449603_);" d="M6993.9,852.8V973h-9.5
				c0-38.1-38.9-38.1-96.8-38.1h-137.9v133.5h85.1c57.9,0,96.8,0,96.8-38.1h9.5v158.4h-9.5c0-38.1-38.9-38.1-96.8-38.1h-85.1V1284
				h137.9c57.9,0,107.8,0,107.8-38.1h9.5l-11,120.3h-370.4v-9.5c38.1,0,38.1-38.9,38.1-96.8V959.1c0-57.9,0-96.8-38.1-96.8v-9.5
				H6993.9z"/>
		</g>
	</g>
</g>
</svg>
