<?xml version="1.0" encoding="utf-8"?>
<!-- Generator: Adobe Illustrator 26.0.0, SVG Export Plug-In . SVG Version: 6.00 Build 0)  -->
<svg version="1.1" id="Layer_1" xmlns="http://www.w3.org/2000/svg" xmlns:xlink="http://www.w3.org/1999/xlink" x="0px" y="0px"
	 viewBox="0 0 7200 4320" style="enable-background:new 0 0 7200 4320;" xml:space="preserve">
<style type="text/css">
	.st0{fill:url(#SVGID_1_);}
	.st1{fill:url(#SVGID_00000059267585696661749260000017513644408187180947_);}
	.st2{fill:url(#XMLID_00000064331332385370208970000011183729639525487260_);}
	.st3{fill:url(#XMLID_00000166656717516086265850000001946592796794883259_);}
	.st4{fill:url(#XMLID_00000170248861187189518980000013747724217318683048_);}
	.st5{fill:url(#XMLID_00000044864896422416341630000006585899888009230764_);}
	.st6{fill-rule:evenodd;clip-rule:evenodd;fill:url(#SVGID_00000135658477518253354410000013408055592266250903_);}
	.st7{fill:url(#SVGID_00000112604246100427201510000009317663375194749583_);}
	.st8{fill:url(#SVGID_00000021805516744382953880000000140931314377221022_);}
	.st9{fill:url(#SVGID_00000145772013928280074680000013018970825202067355_);}
	.st10{fill:url(#SVGID_00000158707502700036804480000016114262213073062316_);}
	.st11{fill:url(#SVGID_00000170974450172408300090000016399459141447012236_);}
	.st12{fill:url(#SVGID_00000014627604079986193130000010420527244841591986_);}
	.st13{fill:url(#SVGID_00000053517856846354943280000013416785169445409712_);}
	.st14{fill:url(#SVGID_00000039123035856129560560000017794834056639922604_);}
	.st15{fill:url(#SVGID_00000139280633609539317710000013332202425621738652_);}
</style>
<g>
	<g>
		<linearGradient id="SVGID_1_" gradientUnits="userSpaceOnUse" x1="2611.3118" y1="2291.7439" x2="4667.5586" y2="2291.7439">
			<stop  offset="0" style="stop-color:#046937"/>
			<stop  offset="1" style="stop-color:#2AA148"/>
		</linearGradient>
		<path class="st0" d="M4533.6,1791.5c0-37,30-67,67-67c37,0,67,30,67,67c0,294.8-119.5,561.7-312.7,754.9
			C4161.7,2739.5,3894.8,2859,3600,2859c-35.2,0-71.3-1.9-108.1-5.6c-36.1-3.6-71.8-9.1-106.9-16.3c-34.8-7.1-68.7-15.8-101.6-26.1
			c-33.3-10.3-66.2-22.4-98.7-36.2c-33.4-14.1-64.5-29-93.1-44.6v-0.3c-31.4-17.1-60.9-34.9-88.3-53.4c-27.3-18.5-54.7-39-81.9-61.5
			c-27.7-22.9-53.1-45.8-76.1-68.8c-23-23-46-48.4-68.8-76.1c-22.5-27.2-43-54.6-61.4-81.9c-19.4-28.7-37.3-58.2-53.7-88.3
			c-15.6-28.7-30.5-59.8-44.6-93.2c-14.3-33.9,1.6-73.1,35.6-87.4c34-14.3,73.1,1.6,87.4,35.6c11.1,26.2,24.3,53.3,39.4,81.2
			c14.5,26.8,30.2,52.6,46.9,77.3c17.4,25.8,35.3,49.8,53.6,72c18,21.8,38.2,43.9,60.5,66.2c22.3,22.3,44.4,42.5,66.2,60.5
			c22.1,18.3,46.2,36.2,72,53.6c25.9,17.5,51.7,33.3,77.2,47.1l0.1-0.2c27.8,15.1,54.9,28.2,81.1,39.3
			c27.7,11.7,56.5,22.2,86.2,31.5c29.4,9.1,59.2,16.8,89.1,22.9c30.5,6.2,61.6,11,93.3,14.2c29.6,3,61,4.5,93.9,4.6
			c5.3-95.3,30.3-234.9,124.7-315.6c153.2-131.1,280.2-53.1,457.4-298.6c0,0,34.6-32.3,53.1-10.6c15.6,18.3,27,125.8-105.1,255.1
			c-26.9,26.4-103.8,85-95.4,101.2c6.5,12.6,359.5-75.7,474.8-448.7C4524.8,1938.3,4533.6,1865.9,4533.6,1791.5"/>
		
			<linearGradient id="SVGID_00000019678814996430853620000016882284408927605901_" gradientUnits="userSpaceOnUse" x1="2532.4412" y1="1291.1675" x2="4588.6875" y2="1291.1675">
			<stop  offset="0" style="stop-color:#222A5F"/>
			<stop  offset="1" style="stop-color:#186CAB"/>
		</linearGradient>
		<path style="fill:url(#SVGID_00000019678814996430853620000016882284408927605901_);" d="M2666.4,1791.5c0,37-30,67-67,67
			c-37,0-67-30-67-67c0-294.8,119.5-561.7,312.7-754.9c193.2-193.2,460.1-312.7,754.9-312.7c35.2,0,71.3,1.9,108.1,5.6
			c36.1,3.6,71.8,9.1,106.9,16.3c34.8,7.1,68.7,15.8,101.6,26.1c33.3,10.3,66.2,22.4,98.7,36.2c33.4,14.1,64.5,29,93.1,44.6v0.3
			c31.4,17,60.9,34.9,88.3,53.4c27.3,18.5,54.7,39,81.9,61.5c27.7,22.8,53.1,45.8,76.1,68.8c23,23,46,48.4,68.8,76.1
			c22.5,27.2,43,54.6,61.4,81.9c19.4,28.7,37.3,58.2,53.7,88.3c15.6,28.7,30.5,59.8,44.6,93.2c14.3,34-1.6,73.1-35.6,87.4
			c-33.9,14.3-73.1-1.6-87.4-35.6c-11.1-26.2-24.3-53.3-39.3-81.2c-14.5-26.8-30.2-52.6-46.9-77.3c-17.4-25.8-35.3-49.8-53.6-72
			c-18-21.7-38.2-43.9-60.5-66.2c-22.3-22.3-44.4-42.5-66.2-60.5c-22.1-18.3-46.2-36.2-72-53.6c-25.9-17.5-51.7-33.3-77.2-47.1
			l-0.1,0.2c-27.8-15.1-54.9-28.2-81.1-39.3c-27.7-11.7-56.5-22.2-86.2-31.4c-29.4-9.1-59.2-16.8-89.1-22.9
			c-30.5-6.2-61.7-11-93.3-14.2c-29.6-3-61-4.5-93.9-4.6c-5.3,95.3-30.3,234.9-124.7,315.6c-153.2,131.1-280.2,53.1-457.4,298.6
			c0,0-34.6,32.3-53.1,10.6c-15.6-18.3-27-125.8,105.1-255.1c26.9-26.4,103.8-85,95.4-101.2c-6.5-12.7-359.5,75.7-474.8,448.8
			C2675.1,1644.7,2666.4,1717,2666.4,1791.5"/>
		<g id="XMLID_00000136375985630696277210000017577584089913406349_">
			
				<linearGradient id="XMLID_00000100360864244565153720000013167362864479502226_" gradientUnits="userSpaceOnUse" x1="15748.3037" y1="-446.7097" x2="15748.3037" y2="-884.2302" gradientTransform="matrix(-1 0 0 -1 19348.3047 1324.1263)">
				<stop  offset="0" style="stop-color:#F04F3F"/>
				<stop  offset="1" style="stop-color:#C42127"/>
			</linearGradient>
			
				<path id="XMLID_00000169550865237692741210000011357358547854569907_" style="fill:url(#XMLID_00000100360864244565153720000013167362864479502226_);" d="
				M3473.6,1918.7l0,289.7H3728v-289.7l289.7,0v-147.8c0,0-332.4,120.4-835.4,147.8H3473.6z"/>
			
				<linearGradient id="XMLID_00000013156133516605609000000005830682254689302155_" gradientUnits="userSpaceOnUse" x1="15527.7354" y1="-744.7016" x2="15768.3164" y2="-504.1211" gradientTransform="matrix(-1 0 0 -1 19348.3047 1324.1263)">
				<stop  offset="0.3878" style="stop-color:#E01F26;stop-opacity:0"/>
				<stop  offset="1" style="stop-color:#F68D5A"/>
			</linearGradient>
			
				<path id="XMLID_00000080178276057159634960000002069689177698518914_" style="fill:url(#XMLID_00000013156133516605609000000005830682254689302155_);" d="
				M3994.2,1895.2h-289.7l0,289.7h-207.5v-273.7c120-16.9,221-37,296.4-54.3c95.7-21.9,164.2-42.3,200.7-54V1895.2z"/>
			
				<linearGradient id="XMLID_00000090276248374917122090000003552817739527100843_" gradientUnits="userSpaceOnUse" x1="15843.2217" y1="-50.4256" x2="15843.2217" y2="-575.1897" gradientTransform="matrix(-1 0 0 -1 19348.3047 1324.1263)">
				<stop  offset="0" style="stop-color:#C42127"/>
				<stop  offset="1" style="stop-color:#E01F26"/>
			</linearGradient>
			
				<path id="XMLID_00000109738453126331866530000015028975209561008528_" style="fill:url(#XMLID_00000090276248374917122090000003552817739527100843_);" d="
				M3827.6,1664.2H3728v-289.7l-254.4,0v289.7h-291v235.1C3306.5,1877.8,3638.2,1809.1,3827.6,1664.2z"/>
			
				<linearGradient id="XMLID_00000116212132025902991450000007418444027511820432_" gradientUnits="userSpaceOnUse" x1="15869.1992" y1="-73.913" x2="15869.1992" y2="-547.5389" gradientTransform="matrix(-1 0 0 -1 19348.3047 1324.1263)">
				<stop  offset="0.3878" style="stop-color:#E01F26;stop-opacity:0"/>
				<stop  offset="1" style="stop-color:#F68D5A"/>
			</linearGradient>
			
				<path id="XMLID_00000080905392814329269850000014534041113893492409_" style="fill:url(#XMLID_00000116212132025902991450000007418444027511820432_);" d="
				M3704.5,1398v289.7h47.6c-173.3,104.4-418.2,160.2-546.1,183.9l0-183.9l291,0V1398H3704.5z"/>
		</g>
		
			<linearGradient id="SVGID_00000183971173891967591830000006608318057373247419_" gradientUnits="userSpaceOnUse" x1="7260.0044" y1="5589.0269" x2="7776.0718" y2="6242.7622" gradientTransform="matrix(0.5271 0.8498 -0.8498 0.5271 5170.3911 -8103.5596)">
			<stop  offset="0" style="stop-color:#222A5F"/>
			<stop  offset="1" style="stop-color:#186CAB"/>
		</linearGradient>
		<path style="fill-rule:evenodd;clip-rule:evenodd;fill:url(#SVGID_00000183971173891967591830000006608318057373247419_);" d="
			M3944.7,1674.2l16.8,98.7l39.1-35.4l2-65.4l106-96.6l61.1,201.9l51-56.9l-6.6-74.2l39.1-35.4l-14.6-15.6l-26.5,23.8l-1.7-15.6
			l39.3-36.1l-18.1-20.2l-24.1,21.7l-6.5-71.2c50.5-36.9,78-81.1,83.2-132.4c-51.3-0.2-97.9,23.1-139.7,70l-70.4-13.1l24.1-21.7
			l-18.4-20.7l-39.3,36.1l-16-3l27-24.1l-14.9-16l-38.7,35.1l-73.3-13.7l-61.3,45.4l194.7,80.3l-106,96.6l-64.9-4.2l-39.6,35.6
			L3944.7,1674.2z"/>
	</g>
	<g>
		<g>
			
				<linearGradient id="SVGID_00000172402457005793329470000001874944215163883664_" gradientUnits="userSpaceOnUse" x1="890.8701" y1="3626.6257" x2="1228.5563" y2="3041.7361">
				<stop  offset="0" style="stop-color:#222A5F"/>
				<stop  offset="1" style="stop-color:#186CAB"/>
			</linearGradient>
			<path style="fill:url(#SVGID_00000172402457005793329470000001874944215163883664_);" d="M906.2,3083.7l271.9,337.1v-247.6
				c0-48.7-3.6-80.2-37.2-80.2v-9.3h160.3v9.3c-37.2,0-37.2,37.9-37.2,94.5v293.4c0,56.5,0,94.5,37.2,94.5v9.3h-97.3l-262.6-322
				v218.3c0,56.5,0,94.5,37.2,94.5v9.3H818.2v-9.3c37.2,0,37.2-37.9,37.2-94.5v-293.4c0-56.5,0-94.5-37.2-94.5v-9.3H906.2z"/>
			
				<linearGradient id="SVGID_00000124846249025284082800000001581177654836245939_" gradientUnits="userSpaceOnUse" x1="1590.4912" y1="3622.094" x2="1922.9841" y2="3046.1995">
				<stop  offset="0" style="stop-color:#222A5F"/>
				<stop  offset="1" style="stop-color:#186CAB"/>
			</linearGradient>
			<path style="fill:url(#SVGID_00000124846249025284082800000001581177654836245939_);" d="M1620.4,3596.1
				c-129.5,0-258.4-87.3-258.4-261.9c0-174.6,128.8-261.9,258.4-261.9c47.2,0,95.2,12.2,136.7,35.8c40.8-23.6,88.7-35.8,136.7-35.8
				c128.8,0,257.6,87.3,257.6,261.9c0,174.6-128.8,261.9-257.6,261.9c-47.9,0-95.9-12.2-136.7-35.8
				C1715.6,3583.9,1667.6,3596.1,1620.4,3596.1z M1790,3374.3c2.9-12.2,4.3-25.8,4.3-40.1c0-117.4-87.3-175.3-173.9-175.3
				c-87.3,0-173.9,58-173.9,175.3c0,117.4,86.6,175.3,173.9,175.3c22.2,0,45.1-3.6,65.8-11.5c-31.5-41.5-50.8-95.9-50.8-163.9
				c0-41.5,7.2-77.3,20-108.8l68,68.7c-2.9,12.2-4.3,25.8-4.3,40.1c0,117.4,87.3,175.3,174.6,175.3c86.6,0,173.9-58,173.9-175.3
				c0-117.4-87.3-175.3-173.9-175.3c-22.9,0-45.1,3.6-66.6,11.5c31.5,41.5,50.8,95.9,50.8,163.9c0,41.5-7.2,77.3-20,108.8
				L1790,3374.3z"/>
			
				<linearGradient id="SVGID_00000051370538799827350020000011015485375950179000_" gradientUnits="userSpaceOnUse" x1="2267.3875" y1="3616.5549" x2="2547.0674" y2="3132.1353">
				<stop  offset="0" style="stop-color:#222A5F"/>
				<stop  offset="1" style="stop-color:#186CAB"/>
			</linearGradient>
			<path style="fill:url(#SVGID_00000051370538799827350020000011015485375950179000_);" d="M2212.1,3584.7v-9.3
				c37.2,0,37.2-37.9,37.2-94.5v-293.4c0-56.5,0-94.5-37.2-94.5v-9.3h195.4c113.1,0,169.6,75.1,169.6,151
				c0,56.5-31.5,112.4-95.2,137.4l73.7,107.3c0.7,1.4,1.4,2.2,1.4,2.9l44.4,64.4c14.3,17.2,28.6,28.6,47.2,28.6v9.3h-160.3v-9.3
				c11.4,0,15.7-4.3,15.7-10.7c0-6.4-3.6-15-10-25L2389.6,3385h-54.4v95.9c0,56.5,0,94.5,37.2,94.5v9.3H2212.1z M2335.2,3303.4
				l72.3,0.7c54.4,0,81.6-35.1,81.6-69.4c0-35.1-27.2-70.1-81.6-70.1h-72.3V3303.4z"/>
		</g>
		<g>
			
				<linearGradient id="SVGID_00000175321287448690799340000006604811940785969050_" gradientUnits="userSpaceOnUse" x1="2864.022" y1="3681.7854" x2="3234.9863" y2="3039.2566">
				<stop  offset="0" style="stop-color:#046937"/>
				<stop  offset="1" style="stop-color:#2AA148"/>
			</linearGradient>
			<path style="fill:url(#SVGID_00000175321287448690799340000006604811940785969050_);" d="M2695.8,3584.7v-9.3
				c36.5,0,42.2-30.1,52.2-96.6l44.4-292.7c1.4-12.9,2.9-25,2.9-35.8c0-35.1-10.7-57.2-38.6-57.2v-9.3h98.8l178.9,359.3l178.2-359.3
				h99.5v9.3c-27.9,0-38.6,22.2-38.6,57.2c0,11.5,1.4,24.3,3.6,38.7l43.6,294.1c10,63.7,15.7,92.3,52.2,92.3v9.3h-160.3v-9.3
				c22.9,0,29.3-14.3,29.3-37.2c0-15.7-2.9-35.1-5.7-57.3l-30.8-199.7l-98,199.7c-14.3,30.1-21.5,54.4-21.5,71.6
				c0,14.3,5.7,22.9,17.2,22.9v9.3h-136v-9.3c10.7,0,15-8.6,15-22.2c0-18.6-8.6-46.5-20.8-71.6l-98-200.4l-30.8,199.7
				c-3.6,22.2-6.4,41.5-6.4,57.3c0,22.9,7.2,37.2,29.3,37.2v9.3H2695.8z"/>
			
				<linearGradient id="SVGID_00000015338967626271387030000009750225298316194184_" gradientUnits="userSpaceOnUse" x1="3574.4265" y1="3686.6501" x2="3962.5386" y2="3014.4199">
				<stop  offset="0" style="stop-color:#046937"/>
				<stop  offset="1" style="stop-color:#2AA148"/>
			</linearGradient>
			<path style="fill:url(#SVGID_00000015338967626271387030000009750225298316194184_);" d="M3943.1,3233.3v270.5h59.4
				c113.1,0,169.6-85.2,169.6-170.3s-56.5-169.6-169.6-169.6h-481.6v130.2h83c56.5,0,94.5,0,94.5-37.2h9.3v154.6h-9.3
				c0-37.2-37.9-37.2-94.5-37.2h-83v130.2h134.5c56.5,0,105.2,0,105.2-37.2h9.3l-10.7,117.4h-361.4v-9.3c37.2,0,37.2-37.9,37.2-94.5
				v-293.4c0-56.5,0-94.5-37.2-94.5v-9.3h608.3c170.3,1.4,255.5,126,255.5,250.5c0,124.5-85.2,248.3-255.5,250.5H3820v-9.3
				c37.2,0,37.2-37.9,37.2-94.5V3337c0-56.5,0-94.5-37.2-94.5v-9.3H3943.1z"/>
			
				<linearGradient id="SVGID_00000019652153098427305980000012098681227885330568_" gradientUnits="userSpaceOnUse" x1="4272.5391" y1="3556.748" x2="4529.5371" y2="3111.614">
				<stop  offset="0" style="stop-color:#046937"/>
				<stop  offset="1" style="stop-color:#2AA148"/>
			</linearGradient>
			<path style="fill:url(#SVGID_00000019652153098427305980000012098681227885330568_);" d="M4320.9,3584.7v-9.3
				c37.2,0,37.2-37.9,37.2-94.5v-293.4c0-56.5,0-94.5-37.2-94.5v-9.3h160.3v9.3c-37.2,0-37.2,37.9-37.2,94.5v293.4
				c0,56.5,0,94.5,37.2,94.5v9.3H4320.9z"/>
			
				<linearGradient id="SVGID_00000096043096588552549620000001994382408515526582_" gradientUnits="userSpaceOnUse" x1="4876.3442" y1="3690.7268" x2="5253.4873" y2="3037.4963">
				<stop  offset="0" style="stop-color:#046937"/>
				<stop  offset="1" style="stop-color:#2AA148"/>
			</linearGradient>
			<path style="fill:url(#SVGID_00000096043096588552549620000001994382408515526582_);" d="M4937.8,3123.1v0.7l-27.9,153.2h-9.3
				c0-9.3-0.7-23.6-2.2-38.7c-12.9-57.2-63.7-78.7-105.2-80.1h-2.2c-113.8-0.7-171,87.3-171,176c0,88,56.5,176,168.9,176
				c48.7,0,110.2-24.3,123.8-75.9c0-1.4,0-2.9,0-5h10l15,115.2c0,0.7,0,0.7,0,0.7h-0.7c-37.9,31.5-78,47.9-136.7,50.1
				c-7.9,0-15,0-22.9,0c-165.3-5.7-247.6-133.1-247.6-261.2c0-131,85.9-261.2,258.3-261.2c53,0,105.9,17.9,148.9,50.1H4937.8z
				 M5254.1,3083.7h-0.7h13.6h-0.7h67.3v9.3c-14.3,0-24.3,13.6-24.3,36.5c0,14.3,4.3,33.6,14.3,55.1l137.4,295.6v-1.4
				c7.2,15,12.2,27.9,17.9,39.4l7.2,16.5c12.9,25.8,25,40.8,48.7,40.8v9.3h-160.3v-9.3c16.5,0,22.2-7.9,22.2-21.5
				c0-17.2-10.7-43.7-23.6-73l-45.1-96.6h-135.3l-44.4,96.6c-13.6,29.3-24.3,55.8-24.3,73c0,13.6,5.7,21.5,22.2,21.5v9.3h-160.3
				v-9.3c23.6,0,35.1-14.3,47.9-40.1l8.6-17.9c5-11.4,10.7-24.3,17.2-38.6v1.4l44.4-95.9h-338.2c-13.1,0-24-10-25.2-23.1l-8-94.3
				h9.3c0,37.2,47.9,37.2,104.5,37.2h295.6l55.1-119.5c10-21.5,14.3-40.8,14.3-55.1c0-22.9-10-36.5-24.3-36.5v-9.3H5254.1z
				 M5229.7,3304.1h61.5l-30.8-66.6L5229.7,3304.1z"/>
			
				<linearGradient id="SVGID_00000181791093486493405510000001574646193966351024_" gradientUnits="userSpaceOnUse" x1="5606.9331" y1="3616.5549" x2="5886.6133" y2="3132.1348">
				<stop  offset="0" style="stop-color:#046937"/>
				<stop  offset="1" style="stop-color:#2AA148"/>
			</linearGradient>
			<path style="fill:url(#SVGID_00000181791093486493405510000001574646193966351024_);" d="M5551.7,3584.7v-9.3
				c37.2,0,37.2-37.9,37.2-94.5v-293.4c0-56.5,0-94.5-37.2-94.5v-9.3h195.4c113.1,0,169.6,75.1,169.6,151
				c0,56.5-31.5,112.4-95.2,137.4l73.7,107.3c0.7,1.4,1.4,2.2,1.4,2.9l44.4,64.4c14.3,17.2,28.6,28.6,47.2,28.6v9.3h-160.3v-9.3
				c11.4,0,15.7-4.3,15.7-10.7c0-6.4-3.6-15-10-25L5729.2,3385h-54.4v95.9c0,56.5,0,94.5,37.2,94.5v9.3H5551.7z M5674.8,3303.4
				l72.3,0.7c54.4,0,81.6-35.1,81.6-69.4c0-35.1-27.2-70.1-81.6-70.1h-72.3V3303.4z"/>
			
				<linearGradient id="SVGID_00000011732041130444292340000002168274383910370724_" gradientUnits="userSpaceOnUse" x1="6036.7393" y1="3600.2866" x2="6344.0117" y2="3068.0754">
				<stop  offset="0" style="stop-color:#046937"/>
				<stop  offset="1" style="stop-color:#2AA148"/>
			</linearGradient>
			<path style="fill:url(#SVGID_00000011732041130444292340000002168274383910370724_);" d="M6371.1,3083.7v117.4h-9.3
				c0-37.2-37.9-37.2-94.5-37.2h-134.5v130.2h83c56.5,0,94.5,0,94.5-37.2h9.3v154.6h-9.3c0-37.2-37.9-37.2-94.5-37.2h-83v130.2
				h134.5c56.5,0,105.2,0,105.2-37.2h9.3l-10.7,117.4h-361.4v-9.3c37.2,0,37.2-37.9,37.2-94.5v-293.4c0-56.5,0-94.5-37.2-94.5v-9.3
				H6371.1z"/>
		</g>
	</g>
</g>
</svg>
